<svg width="256" height="256" viewBox="0 0 256 256" fill="none" xmlns="http://www.w3.org/2000/svg">
  <defs>
    <linearGradient id="tile" x1="32" y1="28" x2="214" y2="230" gradientUnits="userSpaceOnUse">
      <stop stop-color="#FF8A4C"/>
      <stop offset="0.52" stop-color="#FF6A3D"/>
      <stop offset="1" stop-color="#F24F7A"/>
    </linearGradient>
    <radialGradient id="tileGlowA" cx="0" cy="0" r="1" gradientUnits="userSpaceOnUse" gradientTransform="translate(74 58) rotate(45) scale(122)">
      <stop stop-color="#FFD36C" stop-opacity="0.68"/>
      <stop offset="1" stop-color="#FFD36C" stop-opacity="0"/>
    </radialGradient>
    <radialGradient id="tileGlowB" cx="0" cy="0" r="1" gradientUnits="userSpaceOnUse" gradientTransform="translate(196 84) rotate(135) scale(116)">
      <stop stop-color="#5CE1E6" stop-opacity="0.72"/>
      <stop offset="1" stop-color="#5CE1E6" stop-opacity="0"/>
    </radialGradient>
    <linearGradient id="beam" x1="186" y1="54" x2="120" y2="118" gradientUnits="userSpaceOnUse">
      <stop stop-color="#61E5FF"/>
      <stop offset="0.42" stop-color="#8B5CF6"/>
      <stop offset="0.75" stop-color="#FF6FB5"/>
      <stop offset="1" stop-color="#FFD15C"/>
    </linearGradient>
    <linearGradient id="pill" x1="72" y1="122" x2="144" y2="122" gradientUnits="userSpaceOnUse">
      <stop stop-color="#61E5FF"/>
      <stop offset="0.5" stop-color="#8B5CF6"/>
      <stop offset="1" stop-color="#FF7A45"/>
    </linearGradient>
    <filter id="panel-shadow" x="34" y="72" width="184" height="140" filterUnits="userSpaceOnUse" color-interpolation-filters="sRGB">
      <feDropShadow dx="0" dy="10" stdDeviation="12" flood-color="#A73F38" flood-opacity="0.16"/>
    </filter>
  </defs>

  <rect x="20" y="20" width="216" height="216" rx="54" fill="url(#tile)"/>
  <rect x="20" y="20" width="216" height="216" rx="54" fill="url(#tileGlowA)"/>
  <rect x="20" y="20" width="216" height="216" rx="54" fill="url(#tileGlowB)"/>

  <path
    d="M182 56C177.68 67.707 171.384 77.6362 163.111 85.7877C154.838 93.9392 144.468 101.677 132 109"
    stroke="url(#beam)"
    stroke-width="28"
    stroke-linecap="round"
  />
  <circle cx="182" cy="56" r="18" fill="#FFF6E8"/>
  <path
    d="M182 43L185.539 52.4615L195 56L185.539 59.5385L182 69L178.462 59.5385L169 56L178.462 52.4615L182 43Z"
    fill="#FFB52E"
  />
  <circle cx="135" cy="110" r="17" fill="url(#beam)"/>

  <g filter="url(#panel-shadow)">
    <rect x="46" y="86" width="164" height="108" rx="30" fill="#FFF8F1"/>
  </g>

  <circle cx="72" cy="106" r="5" fill="#FF8A4C"/>
  <circle cx="88" cy="106" r="5" fill="#FFD15C"/>
  <circle cx="104" cy="106" r="5" fill="#5CE1E6"/>

  <rect x="72" y="122" width="74" height="18" rx="9" fill="url(#pill)"/>
  <rect x="72" y="150" width="108" height="10" rx="5" fill="#E8D8CB"/>
  <rect x="72" y="167" width="82" height="10" rx="5" fill="#E8D8CB"/>
</svg>
